<svg xmlns="http://www.w3.org/2000/svg" xmlns:xlink="http://www.w3.org/1999/xlink" version="1.1" id="Capa_1" x="0px" y="0px" width="90px" height="90px" viewBox="4.5 -9.0 90.0 121.5" enable-background="new 0 0 90 90" xml:space="preserve">
<g>
	<path fill="#000000" d="M84.354,16.067h-64.23h-1.292H5.647c-1.738,0-3.147,1.409-3.147,3.147v51.573   c0,1.738,1.409,3.146,3.147,3.146h13.185h1.292h64.23c1.736,0,3.146-1.408,3.146-3.146V19.214   C87.5,17.476,86.09,16.067,84.354,16.067z M22.17,25.51c0,1.738-1.409,3.147-3.146,3.147H10.37c-1.738,0-3.147-1.409-3.147-3.147   v-1.573c0-1.738,1.409-3.147,3.147-3.147h8.654c1.738,0,3.146,1.409,3.146,3.147V25.51z M45,67.283   c-10.568,0-19.135-8.564-19.135-19.133S34.432,29.015,45,29.015s19.134,8.567,19.134,19.135S55.568,67.283,45,67.283z"/>
	<path fill="#000000" d="M45,32.162c-8.815,0-15.988,7.172-15.988,15.988c0,8.814,7.172,15.986,15.988,15.986   c8.814,0,15.987-7.172,15.987-15.986C60.987,39.334,53.814,32.162,45,32.162z"/>
</g>
<text x="0.0" y="105.75" font-size="4.5" font-weight="bold" font-family="Helvetica Neue, Helvetica, Arial-Unicode, Arial, Sans-serif" fill="#000000">Created by Jos&#233; Manuel de La&#225;</text><text x="0.0" y="110.25" font-size="4.5" font-weight="bold" font-family="Helvetica Neue, Helvetica, Arial-Unicode, Arial, Sans-serif" fill="#000000">from the Noun Project</text></svg>